C:\Users\israe\Dropbox\PhDWork\ExperimentalData/subject1/100/P1S100W01_EMG(MVC)_40ms.mot
nRows=26
nColumns=16

name C:\Users\israe\Dropbox\PhDWork\ExperimentalData/subject1/100/P1S100W01_EMG(MVC)_40ms.mot
datacolumns 16
datarows 26
range 0.6550000000 0.6800000000
endheader
time	BF	ST	VL	VM	RF	TFL	GE	GA	TA	GL	GM	SO	ES	MF	VI_a
        0.6550000000	        0.1148714025	        0.0951450989	        0.0367182645	        0.0504338669	        0.0291987731	        0.0348059385	        0.0804517388	        0.0154405171	        0.2666100161	        0.0504576977	        0.0299244127	        0.0387783738	        0.8651336914	        0.9041212867	        0.0435760657	
        0.6560000000	        0.1138328229	        0.0930072089	        0.0367203695	        0.0501352896	        0.0290323746	        0.0348992527	        0.0808760705	        0.0154353756	        0.2680044328	        0.0504539120	        0.0299125463	        0.0387036355	        0.8655164584	        0.9043351246	        0.0434278296	
        0.6570000000	        0.1128397949	        0.0909082303	        0.0367099797	        0.0498551566	        0.0288700594	        0.0349934326	        0.0813018064	        0.0154318150	        0.2693614719	        0.0504568159	        0.0298932409	        0.0386295691	        0.8658949111	        0.9045469712	        0.0432825682	
        0.6580000000	        0.1118912640	        0.0888499644	        0.0366865338	        0.0495952058	        0.0287116848	        0.0350881692	        0.0817288074	        0.0154299089	        0.2706792999	        0.0504665600	        0.0298662810	        0.0385567936	        0.8662695493	        0.9047574772	        0.0431408698	
        0.6590000000	        0.1109865041	        0.0868340309	        0.0366494704	        0.0493570877	        0.0285572155	        0.0351831600	        0.0821569001	        0.0154297033	        0.2719562021	        0.0504833818	        0.0298314922	        0.0384858561	        0.8666412364	        0.9049671817	        0.0430032791	
        0.6600000000	        0.1101250138	        0.0848618159	        0.0365983263	        0.0491423717	        0.0284067780	        0.0352781243	        0.0825859878	        0.0154312122	        0.2731907198	        0.0505075692	        0.0297887437	        0.0384172371	        0.8670110800	        0.9051763699	        0.0428703490	
        0.6610000000	        0.1093062618	        0.0829343934	        0.0365328702	        0.0489525379	        0.0282606417	        0.0353728717	        0.0830161419	        0.0154344406	        0.2743817022	        0.0505393781	        0.0297379612	        0.0383513500	        0.8673803247	        0.9053849127	        0.0427427041	
        0.6620000000	        0.1085294627	        0.0810524715	        0.0364531804	        0.0487889522	        0.0281191248	        0.0354673725	        0.0834477528	        0.0154393944	        0.2755280887	        0.0505789790	        0.0296791196	        0.0382885042	        0.8677500812	        0.9055923187	        0.0426210663	
        0.6630000000	        0.1077935301	        0.0792163873	        0.0363596188	        0.0486528407	        0.0279825446	        0.0355617137	        0.0838817224	        0.0154460557	        0.2766289547	        0.0506264335	        0.0296122445	        0.0382288911	        0.8681207425	        0.9057980552	        0.0425062297	
        0.6640000000	        0.1070972354	        0.0774261459	        0.0362527290	        0.0485452714	        0.0278512399	        0.0356559605	        0.0843194482	        0.0154543563	        0.2776839109	        0.0506816872	        0.0295374990	        0.0381726331	        0.8684917176	        0.9060017904	        0.0423990002	
        0.6650000000	        0.1064393700	        0.0756814601	        0.0361331116	        0.0484671583	        0.0277255733	        0.0357500643	        0.0847625539	        0.0154641763	        0.2786935951	        0.0507445991	        0.0294552701	        0.0381198404	        0.8688619787	        0.9062034048	        0.0423001350	
        0.6660000000	        0.1058187248	        0.0739817569	        0.0360013536	        0.0484193044	        0.0276058877	        0.0358438568	        0.0852126155	        0.0154753649	        0.2796598231	        0.0508149683	        0.0293661288	        0.0380706360	        0.8692306925	        0.9064029383	        0.0422103290	
        0.6670000000	        0.1052340192	        0.0723262140	        0.0358580962	        0.0484024579	        0.0274924746	        0.0359370841	        0.0856710386	        0.0154877663	        0.2805851059	        0.0508925302	        0.0292707419	        0.0380251543	        0.8695973735	        0.9066005505	        0.0421302771	
        0.6680000000	        0.1046839231	        0.0707139020	        0.0357042192	        0.0484173229	        0.0273855664	        0.0360294589	        0.0861390993	        0.0155012249	        0.2814720615	        0.0509769873	        0.0291698208	        0.0379835426	        0.8699618361	        0.9067964741	        0.0420607711	
        0.6690000000	        0.1041670652	        0.0691439537	        0.0355409666	        0.0484645282	        0.0272853233	        0.0361207146	        0.0866180116	        0.0155155782	        0.2823231889	        0.0510680711	        0.0290641005	        0.0379459842	        0.8703241529	        0.9069909676	        0.0420027474	
        0.6700000000	        0.1036819817	        0.0676155947	        0.0353698935	        0.0485446098	        0.0271918214	        0.0362106029	        0.0871088707	        0.0155306580	        0.2831406870	        0.0511655733	        0.0289543544	        0.0379127189	        0.8706845967	        0.9071842119	        0.0419572516	
        0.6710000000	        0.1032270976	        0.0661280339	        0.0351926957	        0.0486580030	        0.0271050726	        0.0362988484	        0.0876125544	        0.0155462976	        0.2839261850	        0.0512693455	        0.0288414085	        0.0378840642	        0.8710435753	        0.9073761097	        0.0419253494	
        0.6720000000	        0.1028007296	        0.0646803787	        0.0350110589	        0.0488050078	        0.0270250598	        0.0363851727	        0.0881297020	        0.0155623423	        0.2846806574	        0.0513792440	        0.0287261168	        0.0378604488	        0.8714014313	        0.9075662673	        0.0419080333	
        0.6730000000	        0.1024011111	        0.0632716658	        0.0348266007	        0.0489857588	        0.0269517591	        0.0364693874	        0.0886607393	        0.0155786606	        0.2854046323	        0.0514950448	        0.0286093247	        0.0378423854	        0.8717580156	        0.9077543188	        0.0419061797	
        0.6740000000	        0.1020264280	        0.0619009630	        0.0346408692	        0.0492002432	        0.0268851497	        0.0365514112	        0.0892059253	        0.0155951396	        0.2860985570	        0.0516164376	        0.0284918285	        0.0378303706	        0.8721125397	        0.9079402195	        0.0419205562	
        0.6750000000	        0.1016747681	        0.0605674563	        0.0344553326	        0.0494483280	        0.0268252138	        0.0366312154	        0.0897654208	        0.0156116657	        0.2867629433	        0.0517430814	        0.0283743372	        0.0378248095	        0.8724640688	        0.9081242706	        0.0419518303	
        0.6760000000	        0.1013440848	        0.0592704607	        0.0342713554	        0.0497297527	        0.0267719507	        0.0367088169	        0.0903393358	        0.0156281019	        0.2873981990	        0.0518746352	        0.0282574639	        0.0378260094	        0.8728120482	        0.9083070211	        0.0420005540	
        0.6770000000	        0.1010323515	        0.0580094290	        0.0340901880	        0.0500441077	        0.0267254424	        0.0367843176	        0.0909277141	        0.0156442717	        0.2880045433	        0.0520107473	        0.0281417349	        0.0378342046	        0.8731564096	        0.9084891440	        0.0420671478	
        0.6780000000	        0.1007377439	        0.0567840091	        0.0339129868	        0.0503908418	        0.0266859148	        0.0368579084	        0.0915304710	        0.0156599558	        0.2885821584	        0.0521510292	        0.0280275953	        0.0378495666	        0.8734974880	        0.9086713007	        0.0421519143	
        0.6790000000	        0.1004586264	        0.0555940496	        0.0337408645	        0.0507693033	        0.0266537082	        0.0369298212	        0.0921473090	        0.0156749027	        0.2891313033	        0.0522950330	        0.0279154219	        0.0378721912	        0.8738359261	        0.9088540199	        0.0422550839	
        0.6800000000	        0.1001933994	        0.0544395236	        0.0335749340	        0.0511787712	        0.0266291937	        0.0370002832	        0.0927776519	        0.0156888586	        0.2896523246	        0.0524422184	        0.0278055528	        0.0379020857	        0.8741725656	        0.9090375618	        0.0423768526	
